<svg width="27" height="27" viewBox="0 0 27 27" fill="none" xmlns="http://www.w3.org/2000/svg">
<path d="M26.75 13.25C26.75 20.5678 20.8178 26.5 13.5 26.5C6.18223 26.5 0.25 20.5678 0.25 13.25C0.25 5.93223 6.18223 0 13.5 0C20.8178 0 26.75 5.93223 26.75 13.25ZM2.65658 13.25C2.65658 19.2387 7.51134 24.0934 13.5 24.0934C19.4887 24.0934 24.3434 19.2387 24.3434 13.25C24.3434 7.26134 19.4887 2.40658 13.5 2.40658C7.51134 2.40658 2.65658 7.26134 2.65658 13.25Z" fill="#8DA2FB"/>
<path d="M10.4393 1.5986C10.2704 0.955846 9.61001 0.566465 8.98522 0.792906C7.73146 1.2473 6.55126 1.88918 5.48565 2.69857C4.10001 3.75103 2.93525 5.06611 2.05785 6.56871C1.18045 8.07132 0.607599 9.73202 0.37201 11.456C0.190831 12.7818 0.211846 14.1251 0.432295 15.4403C0.542153 16.0958 1.20584 16.4796 1.8486 16.3107V16.3107C2.49135 16.1419 2.86844 15.4841 2.77181 14.8266C2.6238 13.8195 2.61806 12.7944 2.75643 11.7819C2.94923 10.371 3.41803 9.01191 4.13607 7.78223C4.85411 6.55254 5.80732 5.47632 6.94128 4.61501C7.75513 3.99686 8.65063 3.49809 9.60052 3.13201C10.2206 2.89302 10.6081 2.24135 10.4393 1.5986V1.5986Z" fill="#E5EDFF"/>
</svg>
