<svg width="54" height="54" viewBox="0 0 54 54" fill="none" xmlns="http://www.w3.org/2000/svg">
<path d="M54 27C54 41.9117 41.9117 54 27 54C12.0883 54 0 41.9117 0 27C0 12.0883 12.0883 0 27 0C41.9117 0 54 12.0883 54 27ZM4.90398 27C4.90398 39.2033 14.7967 49.096 27 49.096C39.2033 49.096 49.096 39.2033 49.096 27C49.096 14.7967 39.2033 4.90398 27 4.90398C14.7967 4.90398 4.90398 14.7967 4.90398 27Z" fill="#E5E7EB"/>
<path d="M20.763 3.25752C20.4189 1.94776 19.0731 1.1543 17.8 1.61573C15.2451 2.54167 12.8402 3.84966 10.6688 5.49898C7.84522 7.64361 5.47173 10.3234 3.68382 13.3853C1.89591 16.4472 0.728602 19.8313 0.248533 23.3443C-0.120663 26.046 -0.0778391 28.7833 0.371379 31.4634C0.595239 32.7989 1.94767 33.581 3.25742 33.2369C4.56718 32.8929 5.3356 31.5526 5.1387 30.2127C4.83708 28.1604 4.82539 26.0717 5.10735 24.0083C5.50023 21.1333 6.45552 18.3639 7.91869 15.8581C9.38187 13.3523 11.3243 11.1593 13.635 9.40418C15.2934 8.14454 17.1182 7.12819 19.0538 6.3822C20.3174 5.89521 21.107 4.56728 20.763 3.25752Z" fill="#5850EC"/>
</svg>
